<?xml version="1.0" encoding="UTF-8" standalone="no"?><!-- Generator: Gravit.io --><svg xmlns="http://www.w3.org/2000/svg" xmlns:xlink="http://www.w3.org/1999/xlink" style="isolation:isolate" viewBox="20 161.658 200 230.94" width="200pt" height="230.94pt"><g><g><path d=" M 120 161.658 L 80 184.752 L 80 230.94 L 120 254.034 L 160 230.94 L 160 184.752 L 120 161.658 Z " fill="rgb(124,236,148)"/><path d=" M 160 184.752 L 120 207.846 L 120 254.034 L 160 230.94 L 160 184.752 Z " fill="rgb(48,200,82)"/></g><g><path d=" M 180 196.299 L 140 219.393 L 140 265.581 L 180 288.675 L 220 265.581 L 220 219.393 L 180 196.299 Z " fill="rgb(123,218,255)"/><path d=" M 140 219.393 L 180 242.487 L 180 288.675 L 140 265.581 L 140 219.393 Z " fill="rgb(7,131,181)"/><path d=" M 220 219.393 L 180 242.487 L 180 288.675 L 220 265.581 L 220 219.393 Z " fill="rgb(35,188,249)"/></g><g><path d=" M 180 265.581 L 140 288.675 L 140 334.863 L 180 357.957 L 220 334.863 L 220 288.675 L 180 265.581 Z " fill="rgb(123,218,255)"/><path d=" M 140 288.675 L 180 311.769 L 180 357.957 L 140 334.863 L 140 288.675 Z " fill="rgb(7,131,181)"/><path d=" M 220 288.675 L 180 311.769 L 180 357.957 L 220 334.863 L 220 288.675 Z " fill="rgb(35,188,249)"/></g><g><path d=" M 120 300.222 L 80 323.316 L 80 369.504 L 120 392.598 L 160 369.504 L 160 323.316 L 120 300.222 Z " fill="rgb(123,218,255)"/><path d=" M 80 323.316 L 120 346.41 L 120 392.598 L 80 369.504 L 80 323.316 Z " fill="rgb(7,131,181)"/><path d=" M 160 323.316 L 120 346.41 L 120 392.598 L 160 369.504 L 160 323.316 Z " fill="rgb(35,188,249)"/></g><g><path d=" M 60 265.581 L 20 288.675 L 20 334.863 L 60 357.957 L 100 334.863 L 100 288.675 L 60 265.581 Z " fill="rgb(123,218,255)"/><path d=" M 20 288.675 L 60 311.769 L 60 357.957 L 20 334.863 L 20 288.675 Z " fill="rgb(7,131,181)"/><path d=" M 100 288.675 L 60 311.769 L 60 357.957 L 100 334.863 L 100 288.675 Z " fill="rgb(35,188,249)"/></g><g><path d=" M 60 196.299 L 20 219.393 L 20 265.581 L 60 288.675 L 100 265.581 L 100 219.393 L 60 196.299 Z " fill="rgb(123,218,255)"/><path d=" M 20 219.393 L 60 242.487 L 60 288.675 L 20 265.581 L 20 219.393 Z " fill="rgb(7,131,181)"/><path d=" M 100 219.393 L 60 242.487 L 60 288.675 L 100 265.581 L 100 219.393 Z " fill="rgb(35,188,249)"/></g><path d=" M 80 184.752 L 120 207.846 L 120 254.034 L 80 230.94 L 80 184.752 Z " fill="rgb(25,142,50)"/></g></svg>