<?xml version="1.0" encoding="UTF-8" standalone="no"?><!-- Generator: Gravit.io --><svg xmlns="http://www.w3.org/2000/svg" xmlns:xlink="http://www.w3.org/1999/xlink" style="isolation:isolate" viewBox="130 473.427 140 161.658" width="140pt" height="161.658pt"><g><g><path d=" M 250 502.295 L 230 513.842 L 230 536.936 L 250 548.483 L 270 536.936 L 270 513.842 L 250 502.295 Z " fill="rgb(123,218,255)"/><path d=" M 230 513.842 L 250 525.389 L 250 548.483 L 230 536.936 L 230 513.842 Z " fill="rgb(7,131,181)"/><path d=" M 270 513.842 L 250 525.389 L 250 548.483 L 270 536.936 L 270 513.842 Z " fill="rgb(35,188,249)"/></g><g><path d=" M 150 502.295 L 130 513.842 L 130 536.936 L 150 548.483 L 170 536.936 L 170 513.842 L 150 502.295 Z " fill="rgb(123,218,255)"/><path d=" M 130 513.842 L 150 525.389 L 150 548.483 L 130 536.936 L 130 513.842 Z " fill="rgb(7,131,181)"/><path d=" M 170 513.842 L 150 525.389 L 150 548.483 L 170 536.936 L 170 513.842 Z " fill="rgb(35,188,249)"/></g><g><path d=" M 200 588.897 L 180 600.444 L 180 623.538 L 200 635.085 L 220 623.538 L 220 600.444 L 200 588.897 Z " fill="rgb(123,218,255)"/><path d=" M 180 600.444 L 200 611.991 L 200 635.085 L 180 623.538 L 180 600.444 Z " fill="rgb(7,131,181)"/><path d=" M 220 600.444 L 200 611.991 L 200 635.085 L 220 623.538 L 220 600.444 Z " fill="rgb(35,188,249)"/></g><g><g><path d=" M 200 508.068 L 160 531.162 L 160 577.35 L 200 600.444 L 240 577.35 L 240 531.162 L 200 508.068 Z " fill="rgb(124,236,148)"/><path d=" M 160 531.162 L 200 554.256 L 200 600.444 L 160 577.35 L 160 531.162 Z " fill="rgb(25,142,50)"/><path d=" M 240 531.162 L 200 554.256 L 200 600.444 L 240 577.35 L 240 531.162 Z " fill="rgb(48,200,82)"/></g></g><g><path d=" M 250 560.03 L 230 571.577 L 230 594.671 L 250 606.218 L 270 594.671 L 270 571.577 L 250 560.03 Z " fill="rgb(123,218,255)"/><path d=" M 230 571.577 L 250 583.124 L 250 606.218 L 230 594.671 L 230 571.577 Z " fill="rgb(7,131,181)"/><path d=" M 270 571.577 L 250 583.124 L 250 606.218 L 270 594.671 L 270 571.577 Z " fill="rgb(35,188,249)"/></g><g><path d=" M 150 560.03 L 130 571.577 L 130 594.671 L 150 606.218 L 170 594.671 L 170 571.577 L 150 560.03 Z " fill="rgb(123,218,255)"/><path d=" M 130 571.577 L 150 583.124 L 150 606.218 L 130 594.671 L 130 571.577 Z " fill="rgb(7,131,181)"/><path d=" M 170 571.577 L 150 583.124 L 150 606.218 L 170 594.671 L 170 571.577 Z " fill="rgb(35,188,249)"/></g><g><path d=" M 200 473.427 L 180 484.974 L 180 508.068 L 200 519.615 L 220 508.068 L 220 484.974 L 200 473.427 Z " fill="rgb(123,218,255)"/><path d=" M 180 484.974 L 200 496.521 L 200 519.615 L 180 508.068 L 180 484.974 Z " fill="rgb(7,131,181)"/><path d=" M 220 484.974 L 200 496.521 L 200 519.615 L 220 508.068 L 220 484.974 Z " fill="rgb(35,188,249)"/></g></g></svg>