<?xml version="1.0" encoding="UTF-8" standalone="no"?><!-- Generator: Gravit.io --><svg xmlns="http://www.w3.org/2000/svg" xmlns:xlink="http://www.w3.org/1999/xlink" style="isolation:isolate" viewBox="790 63.509 160 207.846" width="160pt" height="207.846pt"><g><g><path d=" M 890 178.979 L 830 213.62 L 830 236.714 L 890 271.355 L 950 236.714 L 950 213.62 L 890 178.979 Z " fill="rgb(123,218,255)"/><path d=" M 830 213.62 L 890 248.261 L 890 271.355 L 830 236.714 L 830 213.62 Z " fill="rgb(7,131,181)"/><path d=" M 950 213.62 L 890 248.261 L 890 271.355 L 950 236.714 L 950 213.62 Z " fill="rgb(35,188,249)"/></g><g><path d=" M 870 121.244 L 810 155.885 L 810 178.979 L 870 213.62 L 930 178.979 L 930 155.885 L 870 121.244 Z " fill="rgb(123,218,255)"/><path d=" M 810 155.885 L 870 190.526 L 870 213.62 L 810 178.979 L 810 155.885 Z " fill="rgb(7,131,181)"/><path d=" M 930 155.885 L 870 190.526 L 870 213.62 L 930 178.979 L 930 155.885 Z " fill="rgb(35,188,249)"/></g><g><path d=" M 850 63.509 L 790 98.15 L 790 121.244 L 850 155.885 L 910 121.244 L 910 98.15 L 850 63.509 Z " fill="rgb(124,236,148)"/><path d=" M 790 98.15 L 850 132.791 L 850 155.885 L 790 121.244 L 790 98.15 Z " fill="rgb(25,142,50)"/><path d=" M 910 98.15 L 850 132.791 L 850 155.885 L 910 121.244 L 910 98.15 Z " fill="rgb(48,200,82)"/></g></g></svg>